<svg xmlns="http://www.w3.org/2000/svg" viewBox="0 0 24 24" aria-hidden="true">
  <path fill="currentColor" d="M12 .8a11.2 11.2 0 0 0-3.54 21.83c.56.1.77-.24.77-.54v-2c-3.12.68-3.78-1.34-3.78-1.34-.51-1.3-1.25-1.65-1.25-1.65-1.02-.7.08-.69.08-.69 1.13.08 1.73 1.16 1.73 1.16 1 .1 2.63.72 3.27-.55.1-.73.39-1.23.71-1.51-2.49-.28-5.1-1.24-5.1-5.54 0-1.22.44-2.23 1.16-3.01-.12-.29-.5-1.43.11-2.97 0 0 .94-.3 3.08 1.15a10.6 10.6 0 0 1 5.6 0c2.14-1.45 3.08-1.15 3.08-1.15.61 1.54.23 2.68.11 2.97.72.78 1.16 1.79 1.16 3.01 0 4.31-2.62 5.25-5.12 5.53.4.35.76 1.03.76 2.08v3.08c0 .3.2.65.77.54A11.2 11.2 0 0 0 12 .8Z"/>
</svg>
